<?xml version="1.0" encoding="UTF-8" ?>
<svg xmlns="http://www.w3.org/2000/svg" xmlns:xlink="http://www.w3.org/1999/xlink" xmlns:cl="http://www.colourlovers.com/" version="1.1" x="0px" y="0px" cl:filetype="pattern" cl:seamlessversion="2.0" cl:clientversion="1.1.2" cl:target="web" cl:c1="13421772" cl:c2="10066329" cl:c3="6710886" cl:c4="3355443" cl:c5="0" width="200px" height="200px">
<defs>
<clipPath id="canvasClip">
<rect x="0" y="0" width="200" height="200"/>
</clipPath>
</defs>
<g id="wrapper" style="clip-path:url(#canvasClip)">
<rect x="0" y="0" width="200" height="200" fill="#E3E3E3" id="background"/>
<g cl:shapetype="customshape" stroke-width="0" fill="#FFFFFF" stroke="#FFFFFF" cl:layername="U2hhcGUgMTA=">
<g transform="matrix(20 -20 20 20 0 199)">
<g transform="matrix(0.005508 0 0 0.005508 -0.5 -0.5)">
<circle cx="90.667" cy="90.667" r="90.667" stroke-width="0" stroke="#FFFFFF" fill="#FFFFFF"/>
</g>
</g>
<g transform="matrix(20 -20 20 20 200 199)">
<g transform="matrix(0.005508 0 0 0.005508 -0.5 -0.5)">
<circle cx="90.667" cy="90.667" r="90.667" stroke-width="0" stroke="#FFFFFF" fill="#FFFFFF"/>
</g>
</g>
<g transform="matrix(20 -20 20 20 0 -1)">
<g transform="matrix(0.005508 0 0 0.005508 -0.5 -0.5)">
<circle cx="90.667" cy="90.667" r="90.667" stroke-width="0" stroke="#FFFFFF" fill="#FFFFFF"/>
</g>
</g>
<g transform="matrix(20 -20 20 20 200 -1)">
<g transform="matrix(0.005508 0 0 0.005508 -0.5 -0.5)">
<circle cx="90.667" cy="90.667" r="90.667" stroke-width="0" stroke="#FFFFFF" fill="#FFFFFF"/>
</g>
</g>
</g>
<g cl:shapetype="customshape" stroke-width="0" fill="#FFFFFF" stroke="#FFFFFF" cl:layername="U2hhcGUgMTE=">
<g transform="matrix(25.3 -18.44 18.44 25.3 99.5 98.9)">
<g transform="matrix(0.005508 0 0 0.005508 -0.5 -0.5)">
<circle cx="90.667" cy="90.667" r="90.667" stroke-width="0" stroke="#FFFFFF" fill="#FFFFFF"/>
</g>
</g>
</g>
<g cl:shapetype="customshape" stroke-width="0" fill="#FFFFFF" stroke="#FFFFFF" cl:layername="U2hhcGUgMTI=">
<g transform="matrix(23 -23 23 23 0.05 96.9)">
<g transform="matrix(0.005508 0 0 0.005508 -0.5 -0.5)">
<circle cx="90.667" cy="90.667" r="90.667" stroke-width="0" stroke="#FFFFFF" fill="#FFFFFF"/>
</g>
</g>
<g transform="matrix(23 -23 23 23 200.1 96.9)">
<g transform="matrix(0.005508 0 0 0.005508 -0.5 -0.5)">
<circle cx="90.667" cy="90.667" r="90.667" stroke-width="0" stroke="#FFFFFF" fill="#FFFFFF"/>
</g>
</g>
</g>
<g cl:shapetype="customshape" stroke-width="0" fill="#FFFFFF" stroke="#FFFFFF" cl:layername="U2hhcGUgMTQ=">
<g transform="matrix(28.86 -8.174 8.174 28.86 97.9 199)">
<g transform="matrix(0.005508 0 0 0.005508 -0.5 -0.5)">
<circle cx="90.667" cy="90.667" r="90.667" stroke-width="0" stroke="#FFFFFF" fill="#FFFFFF"/>
</g>
</g>
<g transform="matrix(28.86 -8.174 8.174 28.86 97.9 -1)">
<g transform="matrix(0.005508 0 0 0.005508 -0.5 -0.5)">
<circle cx="90.667" cy="90.667" r="90.667" stroke-width="0" stroke="#FFFFFF" fill="#FFFFFF"/>
</g>
</g>
</g>
<g cl:shapetype="customshape" stroke-width="0" fill="#FFFFFF" stroke="#FFFFFF" cl:layername="U2hhcGUgMTk=">
<g transform="matrix(9.944 -27.99 27.99 9.944 44 50)">
<g transform="matrix(0.005508 0 0 0.005508 -0.5 -0.5)">
<circle cx="90.667" cy="90.667" r="90.667" stroke-width="0" stroke="#FFFFFF" fill="#FFFFFF"/>
</g>
</g>
</g>
<g cl:shapetype="customshape" stroke-width="0" fill="#FFFFFF" stroke="#FFFFFF" cl:layername="U2hhcGUgMjA=">
<g transform="matrix(19.14 -26.27 27.08 19.72 152 52)">
<g transform="matrix(0.005508 0 0 0.005508 -0.5 -0.5)">
<circle cx="90.667" cy="90.667" r="90.667" stroke-width="0" stroke="#FFFFFF" fill="#FFFFFF"/>
</g>
</g>
</g>
<g cl:shapetype="customshape" stroke-width="0" fill="#FFFFFF" stroke="#FFFFFF" cl:layername="U2hhcGUgMjE=">
<g transform="matrix(19.99 -21.94 21.94 19.99 44 148)">
<g transform="matrix(0.005508 0 0 0.005508 -0.5 -0.5)">
<circle cx="90.667" cy="90.667" r="90.667" stroke-width="0" stroke="#FFFFFF" fill="#FFFFFF"/>
</g>
</g>
</g>
<g cl:shapetype="customshape" stroke-width="0" fill="#FFFFFF" stroke="#FFFFFF" cl:layername="U2hhcGUgMjI=">
<g transform="matrix(15.96 -25.97 25.97 15.96 147 148)">
<g transform="matrix(0.005508 0 0 0.005508 -0.5 -0.5)">
<circle cx="90.667" cy="90.667" r="90.667" stroke-width="0" stroke="#FFFFFF" fill="#FFFFFF"/>
</g>
</g>
</g>
</g>
</svg>