<?xml version="1.0" encoding="UTF-8" ?>
<svg xmlns="http://www.w3.org/2000/svg" xmlns:xlink="http://www.w3.org/1999/xlink" xmlns:cl="http://www.colourlovers.com/" version="1.1" x="0px" y="0px" cl:filetype="pattern" cl:seamlessversion="2.0" cl:clientversion="1.1.2" cl:target="web" cl:c1="13421772" cl:c2="10066329" cl:c3="6710886" cl:c4="3355443" cl:c5="0" width="200px" height="200px">
<defs>
<clipPath id="canvasClip">
<rect x="0" y="0" width="200" height="200"/>
</clipPath>
</defs>
<g id="wrapper" style="clip-path:url(#canvasClip)">
<rect x="0" y="0" width="200" height="200" fill="#FDFEF7" id="background"/>
<g cl:shapetype="line" fill="#C5F1E7" stroke="#C5F1E7" cl:layername="TGluZSAy">
<g transform="matrix(1 0 0 1 0 0)">
<path d="M0 0 Q117.257 117.257 234.513 234.513" fill="none" stroke-width="10" style="stroke-linecap:round" cl:linestyleid="1"/>
</g>
<g transform="matrix(1 0 0 1 -200 -200)">
<path d="M0 0 Q117.257 117.257 234.513 234.513" fill="none" stroke-width="10" style="stroke-linecap:round" cl:linestyleid="1"/>
</g>
<g transform="matrix(1 0 0 1 0 -200)">
<path d="M0 0 Q117.257 117.257 234.513 234.513" fill="none" stroke-width="10" style="stroke-linecap:round" cl:linestyleid="1"/>
</g>
<g transform="matrix(1 0 0 1 -200 0)">
<path d="M0 0 Q117.257 117.257 234.513 234.513" fill="none" stroke-width="10" style="stroke-linecap:round" cl:linestyleid="1"/>
</g>
</g>
<g cl:shapetype="line" fill="#C5F1E7" stroke="#C5F1E7" cl:layername="TGluZSAz">
<g transform="matrix(1 0 0 1 8 199)">
<path d="M0 0 Q124.001 124.001 248.002 248.002" fill="none" stroke-width="10" style="stroke-linecap:round" cl:linestyleid="1"/>
</g>
<g transform="matrix(1 0 0 1 8 -1)">
<path d="M0 0 Q124.001 124.001 248.002 248.002" fill="none" stroke-width="10" style="stroke-linecap:round" cl:linestyleid="1"/>
</g>
<g transform="matrix(1 0 0 1 -192 -1)">
<path d="M0 0 Q124.001 124.001 248.002 248.002" fill="none" stroke-width="10" style="stroke-linecap:round" cl:linestyleid="1"/>
</g>
<g transform="matrix(1 0 0 1 -192 199)">
<path d="M0 0 Q124.001 124.001 248.002 248.002" fill="none" stroke-width="10" style="stroke-linecap:round" cl:linestyleid="1"/>
</g>
</g>
<g cl:shapetype="line" fill="#C5F1E7" stroke="#C5F1E7" cl:layername="TGluZSA0">
<g transform="matrix(1 0 0 1 18 198)">
<path d="M0 0 Q115.553 115.553 231.106 231.106" fill="none" stroke-width="10" style="stroke-linecap:round" cl:linestyleid="1"/>
</g>
<g transform="matrix(1 0 0 1 18 -2)">
<path d="M0 0 Q115.553 115.553 231.106 231.106" fill="none" stroke-width="10" style="stroke-linecap:round" cl:linestyleid="1"/>
</g>
<g transform="matrix(1 0 0 1 -182 -2)">
<path d="M0 0 Q115.553 115.553 231.106 231.106" fill="none" stroke-width="10" style="stroke-linecap:round" cl:linestyleid="1"/>
</g>
<g transform="matrix(1 0 0 1 -182 198)">
<path d="M0 0 Q115.553 115.553 231.106 231.106" fill="none" stroke-width="10" style="stroke-linecap:round" cl:linestyleid="1"/>
</g>
</g>
<g cl:shapetype="line" fill="#C5F1E7" stroke="#C5F1E7" cl:layername="TGluZSA1">
<g transform="matrix(1 0 0 1 31 199)">
<path d="M0 0 Q110.041 110.041 220.082 220.082" fill="none" stroke-width="10" style="stroke-linecap:round" cl:linestyleid="1"/>
</g>
<g transform="matrix(1 0 0 1 31 -1)">
<path d="M0 0 Q110.041 110.041 220.082 220.082" fill="none" stroke-width="10" style="stroke-linecap:round" cl:linestyleid="1"/>
</g>
<g transform="matrix(1 0 0 1 -169 -1)">
<path d="M0 0 Q110.041 110.041 220.082 220.082" fill="none" stroke-width="10" style="stroke-linecap:round" cl:linestyleid="1"/>
</g>
<g transform="matrix(1 0 0 1 -169 199)">
<path d="M0 0 Q110.041 110.041 220.082 220.082" fill="none" stroke-width="10" style="stroke-linecap:round" cl:linestyleid="1"/>
</g>
</g>
<g cl:shapetype="line" fill="#C5F1E7" stroke="#C5F1E7" cl:layername="TGluZSA2">
<g transform="matrix(1 0 0 1 41 197)">
<path d="M0 0 Q116.004 116.004 232.009 232.009" fill="none" stroke-width="10" style="stroke-linecap:round" cl:linestyleid="1"/>
</g>
<g transform="matrix(1 0 0 1 41 -3)">
<path d="M0 0 Q116.004 116.004 232.009 232.009" fill="none" stroke-width="10" style="stroke-linecap:round" cl:linestyleid="1"/>
</g>
<g transform="matrix(1 0 0 1 -159 -3)">
<path d="M0 0 Q116.004 116.004 232.009 232.009" fill="none" stroke-width="10" style="stroke-linecap:round" cl:linestyleid="1"/>
</g>
<g transform="matrix(1 0 0 1 -159 197)">
<path d="M0 0 Q116.004 116.004 232.009 232.009" fill="none" stroke-width="10" style="stroke-linecap:round" cl:linestyleid="1"/>
</g>
</g>
<g cl:shapetype="line" fill="#C5F1E7" stroke="#C5F1E7" cl:layername="TGluZSA3">
<g transform="matrix(1 0 0 1 54 199)">
<path d="M0 0 Q109.139 109.139 218.277 218.277" fill="none" stroke-width="10" style="stroke-linecap:round" cl:linestyleid="1"/>
</g>
<g transform="matrix(1 0 0 1 54 -1)">
<path d="M0 0 Q109.139 109.139 218.277 218.277" fill="none" stroke-width="10" style="stroke-linecap:round" cl:linestyleid="1"/>
</g>
<g transform="matrix(1 0 0 1 -146 -1)">
<path d="M0 0 Q109.139 109.139 218.277 218.277" fill="none" stroke-width="10" style="stroke-linecap:round" cl:linestyleid="1"/>
</g>
<g transform="matrix(1 0 0 1 -146 199)">
<path d="M0 0 Q109.139 109.139 218.277 218.277" fill="none" stroke-width="10" style="stroke-linecap:round" cl:linestyleid="1"/>
</g>
</g>
<g cl:shapetype="line" fill="#C5F1E7" stroke="#C5F1E7" cl:layername="TGluZSA4">
<g transform="matrix(1 0 0 1 66 197)">
<path d="M0 0 Q109.928 109.928 219.856 219.856" fill="none" stroke-width="10" style="stroke-linecap:round" cl:linestyleid="1"/>
</g>
<g transform="matrix(1 0 0 1 66 -3)">
<path d="M0 0 Q109.928 109.928 219.856 219.856" fill="none" stroke-width="10" style="stroke-linecap:round" cl:linestyleid="1"/>
</g>
<g transform="matrix(1 0 0 1 -134 -3)">
<path d="M0 0 Q109.928 109.928 219.856 219.856" fill="none" stroke-width="10" style="stroke-linecap:round" cl:linestyleid="1"/>
</g>
<g transform="matrix(1 0 0 1 -134 197)">
<path d="M0 0 Q109.928 109.928 219.856 219.856" fill="none" stroke-width="10" style="stroke-linecap:round" cl:linestyleid="1"/>
</g>
</g>
<g cl:shapetype="line" fill="#C5F1E7" stroke="#C5F1E7" cl:layername="TGluZSA5">
<g transform="matrix(1 0 0 1 80 198)">
<path d="M0 0 Q123.05 123.05 246.1 246.1" fill="none" stroke-width="10" style="stroke-linecap:round" cl:linestyleid="1"/>
</g>
<g transform="matrix(1 0 0 1 80 -2)">
<path d="M0 0 Q123.05 123.05 246.1 246.1" fill="none" stroke-width="10" style="stroke-linecap:round" cl:linestyleid="1"/>
</g>
<g transform="matrix(1 0 0 1 -120 -2)">
<path d="M0 0 Q123.05 123.05 246.1 246.1" fill="none" stroke-width="10" style="stroke-linecap:round" cl:linestyleid="1"/>
</g>
<g transform="matrix(1 0 0 1 -120 198)">
<path d="M0 0 Q123.05 123.05 246.1 246.1" fill="none" stroke-width="10" style="stroke-linecap:round" cl:linestyleid="1"/>
</g>
</g>
<g cl:shapetype="line" fill="#C5F1E7" stroke="#C5F1E7" cl:layername="TGluZSAxMA==">
<g transform="matrix(1 0 0 1 90 198)">
<path d="M0 0 Q120.551 120.551 241.102 241.102" fill="none" stroke-width="10" style="stroke-linecap:round" cl:linestyleid="1"/>
</g>
<g transform="matrix(1 0 0 1 90 -2)">
<path d="M0 0 Q120.551 120.551 241.102 241.102" fill="none" stroke-width="10" style="stroke-linecap:round" cl:linestyleid="1"/>
</g>
<g transform="matrix(1 0 0 1 -110 -2)">
<path d="M0 0 Q120.551 120.551 241.102 241.102" fill="none" stroke-width="10" style="stroke-linecap:round" cl:linestyleid="1"/>
</g>
<g transform="matrix(1 0 0 1 -110 198)">
<path d="M0 0 Q120.551 120.551 241.102 241.102" fill="none" stroke-width="10" style="stroke-linecap:round" cl:linestyleid="1"/>
</g>
</g>
</g>
</svg>